<mxfile host="www.draw.io" modified="2023-07-07T07:44:44.244Z" agent="Mozilla/5.0 (Windows NT 10.0; Win64; x64) AppleWebKit/537.36 (KHTML, like Gecko) Chrome/114.0.0.0 Safari/537.36 Edg/114.0.1823.67" etag="7JDka_XZECzZBEZ5jY8d" version="21.6.1" type="device">
  <diagram id="R2lEEEUBdFMjLlhIrx00" name="Page-1">
    <mxGraphModel dx="1392" dy="775" grid="1" gridSize="10" guides="1" tooltips="1" connect="1" arrows="1" fold="1" page="1" pageScale="1" pageWidth="850" pageHeight="1100" math="0" shadow="0" extFonts="Permanent Marker^https://fonts.googleapis.com/css?family=Permanent+Marker">
      <root>
        <mxCell id="0" />
        <mxCell id="1" parent="0" />
        <mxCell id="vAiuzUgHTBZK7nf8tgEe-1" value="Database" style="shape=table;startSize=30;container=1;collapsible=0;childLayout=tableLayout;strokeColor=#6c8ebf;fontSize=16;fillColor=#66FFFF;gradientColor=none;swimlaneFillColor=#CCFFFF;" vertex="1" parent="1">
          <mxGeometry x="335" y="120" width="180" height="150" as="geometry" />
        </mxCell>
        <mxCell id="vAiuzUgHTBZK7nf8tgEe-2" value="" style="shape=tableRow;horizontal=0;startSize=0;swimlaneHead=0;swimlaneBody=0;strokeColor=inherit;top=0;left=0;bottom=0;right=0;collapsible=0;dropTarget=0;fillColor=none;points=[[0,0.5],[1,0.5]];portConstraint=eastwest;fontSize=16;" vertex="1" parent="vAiuzUgHTBZK7nf8tgEe-1">
          <mxGeometry y="30" width="180" height="40" as="geometry" />
        </mxCell>
        <mxCell id="vAiuzUgHTBZK7nf8tgEe-3" value="" style="shape=partialRectangle;html=1;whiteSpace=wrap;connectable=0;strokeColor=inherit;overflow=hidden;fillColor=none;top=0;left=0;bottom=0;right=0;pointerEvents=1;fontSize=16;" vertex="1" parent="vAiuzUgHTBZK7nf8tgEe-2">
          <mxGeometry width="60" height="40" as="geometry">
            <mxRectangle width="60" height="40" as="alternateBounds" />
          </mxGeometry>
        </mxCell>
        <mxCell id="vAiuzUgHTBZK7nf8tgEe-4" value="" style="shape=partialRectangle;html=1;whiteSpace=wrap;connectable=0;strokeColor=inherit;overflow=hidden;fillColor=none;top=0;left=0;bottom=0;right=0;pointerEvents=1;fontSize=16;" vertex="1" parent="vAiuzUgHTBZK7nf8tgEe-2">
          <mxGeometry x="60" width="60" height="40" as="geometry">
            <mxRectangle width="60" height="40" as="alternateBounds" />
          </mxGeometry>
        </mxCell>
        <mxCell id="vAiuzUgHTBZK7nf8tgEe-5" value="" style="shape=partialRectangle;html=1;whiteSpace=wrap;connectable=0;strokeColor=inherit;overflow=hidden;fillColor=none;top=0;left=0;bottom=0;right=0;pointerEvents=1;fontSize=16;" vertex="1" parent="vAiuzUgHTBZK7nf8tgEe-2">
          <mxGeometry x="120" width="60" height="40" as="geometry">
            <mxRectangle width="60" height="40" as="alternateBounds" />
          </mxGeometry>
        </mxCell>
        <mxCell id="vAiuzUgHTBZK7nf8tgEe-6" value="" style="shape=tableRow;horizontal=0;startSize=0;swimlaneHead=0;swimlaneBody=0;strokeColor=inherit;top=0;left=0;bottom=0;right=0;collapsible=0;dropTarget=0;fillColor=none;points=[[0,0.5],[1,0.5]];portConstraint=eastwest;fontSize=16;" vertex="1" parent="vAiuzUgHTBZK7nf8tgEe-1">
          <mxGeometry y="70" width="180" height="40" as="geometry" />
        </mxCell>
        <mxCell id="vAiuzUgHTBZK7nf8tgEe-7" value="" style="shape=partialRectangle;html=1;whiteSpace=wrap;connectable=0;strokeColor=inherit;overflow=hidden;fillColor=none;top=0;left=0;bottom=0;right=0;pointerEvents=1;fontSize=16;" vertex="1" parent="vAiuzUgHTBZK7nf8tgEe-6">
          <mxGeometry width="60" height="40" as="geometry">
            <mxRectangle width="60" height="40" as="alternateBounds" />
          </mxGeometry>
        </mxCell>
        <mxCell id="vAiuzUgHTBZK7nf8tgEe-8" value="" style="shape=partialRectangle;html=1;whiteSpace=wrap;connectable=0;strokeColor=inherit;overflow=hidden;fillColor=none;top=0;left=0;bottom=0;right=0;pointerEvents=1;fontSize=16;" vertex="1" parent="vAiuzUgHTBZK7nf8tgEe-6">
          <mxGeometry x="60" width="60" height="40" as="geometry">
            <mxRectangle width="60" height="40" as="alternateBounds" />
          </mxGeometry>
        </mxCell>
        <mxCell id="vAiuzUgHTBZK7nf8tgEe-9" value="" style="shape=partialRectangle;html=1;whiteSpace=wrap;connectable=0;strokeColor=inherit;overflow=hidden;fillColor=none;top=0;left=0;bottom=0;right=0;pointerEvents=1;fontSize=16;" vertex="1" parent="vAiuzUgHTBZK7nf8tgEe-6">
          <mxGeometry x="120" width="60" height="40" as="geometry">
            <mxRectangle width="60" height="40" as="alternateBounds" />
          </mxGeometry>
        </mxCell>
        <mxCell id="vAiuzUgHTBZK7nf8tgEe-10" value="" style="shape=tableRow;horizontal=0;startSize=0;swimlaneHead=0;swimlaneBody=0;strokeColor=inherit;top=0;left=0;bottom=0;right=0;collapsible=0;dropTarget=0;fillColor=none;points=[[0,0.5],[1,0.5]];portConstraint=eastwest;fontSize=16;" vertex="1" parent="vAiuzUgHTBZK7nf8tgEe-1">
          <mxGeometry y="110" width="180" height="40" as="geometry" />
        </mxCell>
        <mxCell id="vAiuzUgHTBZK7nf8tgEe-11" value="" style="shape=partialRectangle;html=1;whiteSpace=wrap;connectable=0;strokeColor=inherit;overflow=hidden;fillColor=none;top=0;left=0;bottom=0;right=0;pointerEvents=1;fontSize=16;" vertex="1" parent="vAiuzUgHTBZK7nf8tgEe-10">
          <mxGeometry width="60" height="40" as="geometry">
            <mxRectangle width="60" height="40" as="alternateBounds" />
          </mxGeometry>
        </mxCell>
        <mxCell id="vAiuzUgHTBZK7nf8tgEe-12" value="" style="shape=partialRectangle;html=1;whiteSpace=wrap;connectable=0;strokeColor=inherit;overflow=hidden;fillColor=none;top=0;left=0;bottom=0;right=0;pointerEvents=1;fontSize=16;" vertex="1" parent="vAiuzUgHTBZK7nf8tgEe-10">
          <mxGeometry x="60" width="60" height="40" as="geometry">
            <mxRectangle width="60" height="40" as="alternateBounds" />
          </mxGeometry>
        </mxCell>
        <mxCell id="vAiuzUgHTBZK7nf8tgEe-13" value="" style="shape=partialRectangle;html=1;whiteSpace=wrap;connectable=0;strokeColor=inherit;overflow=hidden;fillColor=none;top=0;left=0;bottom=0;right=0;pointerEvents=1;fontSize=16;" vertex="1" parent="vAiuzUgHTBZK7nf8tgEe-10">
          <mxGeometry x="120" width="60" height="40" as="geometry">
            <mxRectangle width="60" height="40" as="alternateBounds" />
          </mxGeometry>
        </mxCell>
        <mxCell id="vAiuzUgHTBZK7nf8tgEe-14" value="" style="shape=actor;whiteSpace=wrap;html=1;fillColor=#fff2cc;strokeColor=#d6b656;" vertex="1" parent="1">
          <mxGeometry x="110" y="320" width="40" height="60" as="geometry" />
        </mxCell>
        <mxCell id="vAiuzUgHTBZK7nf8tgEe-15" value="" style="shape=actor;whiteSpace=wrap;html=1;fillColor=#ffe6cc;strokeColor=#d79b00;" vertex="1" parent="1">
          <mxGeometry x="200" y="410" width="40" height="60" as="geometry" />
        </mxCell>
        <mxCell id="vAiuzUgHTBZK7nf8tgEe-16" value="" style="shape=actor;whiteSpace=wrap;html=1;fillColor=#f8cecc;strokeColor=#b85450;" vertex="1" parent="1">
          <mxGeometry x="90" y="190" width="40" height="60" as="geometry" />
        </mxCell>
        <mxCell id="vAiuzUgHTBZK7nf8tgEe-17" value="VM1" style="icon;html=1;image=img/clipart/Gear_128x128.png" vertex="1" parent="1">
          <mxGeometry x="720" y="190" width="60" height="60" as="geometry" />
        </mxCell>
        <mxCell id="vAiuzUgHTBZK7nf8tgEe-18" value="VM2" style="icon;html=1;image=img/clipart/Gear_128x128.png" vertex="1" parent="1">
          <mxGeometry x="680" y="332.81" width="60" height="60" as="geometry" />
        </mxCell>
        <mxCell id="vAiuzUgHTBZK7nf8tgEe-19" value="VM3" style="icon;html=1;image=img/clipart/Gear_128x128.png" vertex="1" parent="1">
          <mxGeometry x="570" y="440" width="60" height="60" as="geometry" />
        </mxCell>
        <mxCell id="vAiuzUgHTBZK7nf8tgEe-20" value="" style="shape=doubleArrow;direction=south;whiteSpace=wrap;html=1;rotation=85;" vertex="1" parent="1">
          <mxGeometry x="212.05" y="123.59" width="40" height="172.81" as="geometry" />
        </mxCell>
        <mxCell id="vAiuzUgHTBZK7nf8tgEe-22" value="" style="shape=doubleArrow;direction=south;whiteSpace=wrap;html=1;rotation=65;" vertex="1" parent="1">
          <mxGeometry x="220" y="210" width="40" height="172.81" as="geometry" />
        </mxCell>
        <mxCell id="vAiuzUgHTBZK7nf8tgEe-23" value="" style="shape=doubleArrow;direction=south;whiteSpace=wrap;html=1;rotation=40;" vertex="1" parent="1">
          <mxGeometry x="280" y="263.59" width="40" height="172.81" as="geometry" />
        </mxCell>
        <mxCell id="vAiuzUgHTBZK7nf8tgEe-24" value="" style="shape=doubleArrow;direction=south;whiteSpace=wrap;html=1;rotation=95;" vertex="1" parent="1">
          <mxGeometry x="600" y="123.6" width="40" height="172.81" as="geometry" />
        </mxCell>
        <mxCell id="vAiuzUgHTBZK7nf8tgEe-25" value="" style="shape=doubleArrow;direction=south;whiteSpace=wrap;html=1;rotation=120;" vertex="1" parent="1">
          <mxGeometry x="580" y="220" width="40" height="172.81" as="geometry" />
        </mxCell>
        <mxCell id="vAiuzUgHTBZK7nf8tgEe-26" value="" style="shape=doubleArrow;direction=south;whiteSpace=wrap;html=1;rotation=-35;" vertex="1" parent="1">
          <mxGeometry x="515" y="276.4" width="40" height="172.81" as="geometry" />
        </mxCell>
      </root>
    </mxGraphModel>
  </diagram>
</mxfile>
